<svg id="Layer_1" data-name="Layer 1" xmlns="http://www.w3.org/2000/svg" viewBox="0 0 1080 1080"><defs><style>.cls-1{fill:#fdfbfb;}</style></defs><title>Artboard 1</title><path class="cls-1" d="M538.87,14C248.3,14,12.74,249.56,12.74,540.13s235.56,526.13,526.13,526.13S1065,830.71,1065,540.13,829.44,14,538.87,14M568.6,1028.7c-253.42,0-458.85-205.43-458.85-458.84S315.18,111,568.6,111s458.84,205.43,458.84,458.85S822,1028.7,568.6,1028.7"/><path class="cls-1" d="M622.39,233.47c-207.28,0-375.32,168-375.32,375.32s168,375.31,375.32,375.31,375.32-168,375.32-375.31-168-375.32-375.32-375.32m39.12,722.39C492.24,955.86,355,818.65,355,649.39S492.24,342.92,661.51,342.92,968,480.13,968,649.39,830.77,955.86,661.51,955.86"/></svg>