<svg xmlns="http://www.w3.org/2000/svg" viewBox="0 0 1548.84 166.14"><defs><style>.cls-1{fill:#422b66;}</style></defs><title>Asset 2</title><g id="Layer_2" data-name="Layer 2"><g id="Layer_1-2" data-name="Layer 1"><path class="cls-1" d="M30.6,162.31A50,50,0,0,1,4,136.63a44.82,44.82,0,0,1-4-18.95V24.78a16.91,16.91,0,0,1,5.1-12.4,16.91,16.91,0,0,1,12.39-5.1,17.09,17.09,0,0,1,12.2,5.1A16.62,16.62,0,0,1,35,24.78v92.9a12.73,12.73,0,0,0,4.19,9.48,13.55,13.55,0,0,0,9.66,4H267.43a17.49,17.49,0,1,1,0,35H49.92a49.45,49.45,0,0,1-19.32-3.83"/><path class="cls-1" d="M358,101.1a38.83,38.83,0,0,0,6.19,14.4,38,38,0,0,0,12.38,11.11q7.84,4.56,20.59,4.55h145q12.38,0,20.4-4.55a37.54,37.54,0,0,0,12.57-11.11,39,39,0,0,0,6.19-14.4A70.7,70.7,0,0,0,583,86.72V25.14a16.84,16.84,0,0,1,5.1-12.39,17.6,17.6,0,0,1,24.78,0,16.92,16.92,0,0,1,5.1,12.39V86.72a89.91,89.91,0,0,1-4.56,27.86,85.27,85.27,0,0,1-13.29,25.52,72.63,72.63,0,0,1-21.14,18.75,54.12,54.12,0,0,1-28.05,7.29H384.75a53.23,53.23,0,0,1-26.6-8.2,72.94,72.94,0,0,1-19.86-18.75A87.32,87.32,0,0,1,325.73,114a90.19,90.19,0,0,1-4.38-27.32V25.14a16.85,16.85,0,0,1,5.11-12.39,17.59,17.59,0,0,1,24.77,0,16.88,16.88,0,0,1,5.1,12.39V86.72A70.7,70.7,0,0,0,358,101.1"/><path class="cls-1" d="M676.22,159.58a17.38,17.38,0,0,1-31-10.93c0-4.37,1.21-7.88,3.64-10.56L737.43,19A48.3,48.3,0,0,1,775.68,0a47.27,47.27,0,0,1,20.78,4.74,42.45,42.45,0,0,1,16,13.12L901,136.27a25.47,25.47,0,0,1,3.65,5.64,15.69,15.69,0,0,1,1.45,6.74,17.41,17.41,0,0,1-17.48,17.49,16.28,16.28,0,0,1-13.85-6.92L789.9,45.91a81,81,0,0,0-6.37-6.38,11.68,11.68,0,0,0-7.85-3.46q-4,0-7.83,3.46a47.19,47.19,0,0,0-6,6.38Z"/><path class="cls-1" d="M942.56,24.78a16.85,16.85,0,0,1,5.1-12.4A16.87,16.87,0,0,1,960,7.29H1178.3a48.08,48.08,0,0,1,19.12,3.82,51.23,51.23,0,0,1,15.67,10.38,48.09,48.09,0,0,1,10.56,15.31,46.77,46.77,0,0,1,3.82,19,46.81,46.81,0,0,1-3.82,19A48,48,0,0,1,1213.09,90a51.26,51.26,0,0,1-15.67,10.39,48.26,48.26,0,0,1-19.12,3.83H988.82a13.25,13.25,0,0,0-11.29,13.47v31A16.57,16.57,0,0,1,972.25,161a17,17,0,0,1-12.21,5.1,17.41,17.41,0,0,1-17.48-17.49v-35a46,46,0,0,1,3.28-17.3,41.78,41.78,0,0,1,9.28-14.21A45.41,45.41,0,0,1,969,72.69a42.25,42.25,0,0,1,17.29-3.47h193.48a13.88,13.88,0,0,0,9.65-3.82,12.52,12.52,0,0,0,4.19-9.65,12.7,12.7,0,0,0-4.19-9.48,13.56,13.56,0,0,0-9.65-4H960a16.81,16.81,0,0,1-12.38-5.1,16.81,16.81,0,0,1-5.1-12.38"/><path class="cls-1" d="M1263.91,24.78a16.85,16.85,0,0,1,5.1-12.4,16.88,16.88,0,0,1,12.39-5.09h218.25a48,48,0,0,1,19.12,3.82,51.23,51.23,0,0,1,15.67,10.38A48.09,48.09,0,0,1,1545,36.8a46.79,46.79,0,0,1,3.84,19,46.82,46.82,0,0,1-3.84,19A48,48,0,0,1,1534.44,90a51.26,51.26,0,0,1-15.67,10.39,48.22,48.22,0,0,1-19.12,3.83H1310.19a13.24,13.24,0,0,0-11.31,13.47v31A16.53,16.53,0,0,1,1293.6,161a17,17,0,0,1-12.2,5.1,17.41,17.41,0,0,1-17.49-17.49v-35a46,46,0,0,1,3.28-17.3,41.66,41.66,0,0,1,9.29-14.21,45.13,45.13,0,0,1,13.85-9.47,42.24,42.24,0,0,1,17.31-3.47H1501.1a13.9,13.9,0,0,0,9.66-3.82,12.55,12.55,0,0,0,4.18-9.65,12.72,12.72,0,0,0-4.18-9.48,13.58,13.58,0,0,0-9.66-4H1281.4a16.81,16.81,0,0,1-12.39-5.1,16.81,16.81,0,0,1-5.1-12.38"/></g></g></svg>